<svg class="main-svg" xmlns="http://www.w3.org/2000/svg" xmlns:xlink="http://www.w3.org/1999/xlink" width="700" height="450" style="" viewBox="0 0 700 450"><rect x="0" y="0" width="700" height="450" style="fill: rgb(255, 255, 255); fill-opacity: 1;"/><defs id="defs-13a56a"><g class="clips"><clipPath id="clip13a56axyplot" class="plotclip"><rect width="580" height="330"/></clipPath><clipPath class="axesclip" id="clip13a56ax"><rect x="60" y="0" width="580" height="450"/></clipPath><clipPath class="axesclip" id="clip13a56ay"><rect x="0" y="60" width="700" height="330"/></clipPath><clipPath class="axesclip" id="clip13a56axy"><rect x="60" y="60" width="580" height="330"/></clipPath></g><g class="gradients"/></defs><g class="bglayer"/><g class="layer-below"><g class="imagelayer"/><g class="shapelayer"/></g><g class="cartesianlayer"><g class="subplot xy"><g class="layer-subplot"><g class="shapelayer"/><g class="imagelayer"/></g><g class="gridlayer"><g class="x"><path class="xgrid crisp" transform="translate(131.07999999999998,0)" d="M0,60v330" style="stroke: rgb(238, 238, 238); stroke-opacity: 1; stroke-width: 1px;"/><path class="xgrid crisp" transform="translate(202.16,0)" d="M0,60v330" style="stroke: rgb(238, 238, 238); stroke-opacity: 1; stroke-width: 1px;"/><path class="xgrid crisp" transform="translate(273.24,0)" d="M0,60v330" style="stroke: rgb(238, 238, 238); stroke-opacity: 1; stroke-width: 1px;"/><path class="xgrid crisp" transform="translate(344.31,0)" d="M0,60v330" style="stroke: rgb(238, 238, 238); stroke-opacity: 1; stroke-width: 1px;"/><path class="xgrid crisp" transform="translate(415.39,0)" d="M0,60v330" style="stroke: rgb(238, 238, 238); stroke-opacity: 1; stroke-width: 1px;"/><path class="xgrid crisp" transform="translate(486.47,0)" d="M0,60v330" style="stroke: rgb(238, 238, 238); stroke-opacity: 1; stroke-width: 1px;"/><path class="xgrid crisp" transform="translate(557.55,0)" d="M0,60v330" style="stroke: rgb(238, 238, 238); stroke-opacity: 1; stroke-width: 1px;"/><path class="xgrid crisp" transform="translate(628.63,0)" d="M0,60v330" style="stroke: rgb(238, 238, 238); stroke-opacity: 1; stroke-width: 1px;"/></g><g class="y"><path class="ygrid crisp" transform="translate(0,357.01)" d="M60,0h580" style="stroke: rgb(238, 238, 238); stroke-opacity: 1; stroke-width: 1px;"/><path class="ygrid crisp" transform="translate(0,295.85)" d="M60,0h580" style="stroke: rgb(238, 238, 238); stroke-opacity: 1; stroke-width: 1px;"/><path class="ygrid crisp" transform="translate(0,234.69)" d="M60,0h580" style="stroke: rgb(238, 238, 238); stroke-opacity: 1; stroke-width: 1px;"/><path class="ygrid crisp" transform="translate(0,112.37)" d="M60,0h580" style="stroke: rgb(238, 238, 238); stroke-opacity: 1; stroke-width: 1px;"/></g></g><g class="zerolinelayer"><path class="xzl zl crisp" transform="translate(60,0)" d="M0,60v330" style="stroke: rgb(68, 68, 68); stroke-opacity: 1; stroke-width: 1px;"/><path class="yzl zl crisp" transform="translate(0,173.53)" d="M60,0h580" style="stroke: rgb(68, 68, 68); stroke-opacity: 1; stroke-width: 1px;"/></g><path class="xlines-below"/><path class="ylines-below"/><g class="overlines-below"/><g class="xaxislayer-below"/><g class="yaxislayer-below"/><g class="overaxes-below"/><g class="plot" transform="translate(60, 60)" clip-path="url('#clip13a56axyplot')"><g class="scatterlayer mlayer"><g class="trace scatter trace967818" style="stroke-miterlimit: 2; opacity: 1;"><g class="fills"/><g class="errorbars"/><g class="lines"/><g class="points"/><g class="text"/></g><g class="trace scatter tracedce627" style="stroke-miterlimit: 2; opacity: 1;"><g class="fills"/><g class="errorbars"/><g class="lines"><path class="js-line" d="M0.71,230.69L1.42,153.7L2.13,218.35L2.84,131.99L3.55,196.5L4.26,141.91L4.98,164.12L5.69,192.34L6.4,165.14L7.11,146.83L7.82,173.42L10.66,114.99L11.37,151.54L12.08,170.8L12.79,160.4L14.22,152.73L14.93,132.67L16.35,157.65L17.06,135.85L17.77,161.75L18.48,134.68L19.19,155.72L19.9,232L21.32,153.85L22.03,179.98L23.46,135.3L24.17,140.14L24.88,163.51L25.59,127.96L26.3,178.6L27.01,132.42L28.43,204.2L29.14,156.68L29.85,133.63L30.56,151.28L31.27,154.23L31.99,134.68L32.7,141.31L33.41,124.01L34.12,148.02L34.83,140.85L35.54,140.55L36.25,138.23L37.67,159.43L38.38,150.11L39.09,150.39L39.8,144.73L40.51,132.76L41.23,154L41.94,176.15L42.65,146.77L43.36,126.49L44.07,148.34L44.78,137.37L45.49,153.04L46.2,142.53L46.91,149.28L47.62,186.78L48.33,134.18L49.04,125.6L49.75,144.02L50.47,151.29L51.18,169.9L51.89,131.02L52.6,161.34L53.31,126.24L54.02,133.4L54.73,138.35L55.44,116.96L56.15,108.17L56.86,149.78L57.57,154.35L58.28,115.04L59,144.63L59.71,139.8L61.13,116.17L61.84,133.1L62.55,128.03L63.26,112.91L64.68,148.98L65.39,147.72L66.1,135.04L66.81,142.11L68.24,170.68L68.95,118.75L69.66,121.15L70.37,146.38L71.08,126.96L71.79,144.88L72.5,166.38L73.21,117.85L73.92,120.62L74.63,131.51L75.34,124.54L76.05,144.08L76.76,141.1L77.48,133.76L78.19,119.07L78.9,142.57L79.61,138.85L80.32,114.94L81.74,145.82L82.45,112.46L83.16,138.21L83.87,124.6L84.58,126.76L85.29,133.54L86,119.41L86.72,120.21L87.43,136.61L88.14,127.64L88.85,129.36L89.56,143.62L90.27,140.23L90.98,175.1L92.4,121.89L93.11,143.98L93.82,134.69L94.53,141.54L95.25,138.1L95.96,124.02L96.67,122.68L97.38,169.31L98.8,126.11L99.51,114.88L100.22,138.11L100.93,137.4L101.64,136.39L102.35,138.45L103.06,151.36L104.49,115.54L105.2,123.67L105.91,146.95L106.62,128.42L107.33,136.15L108.04,114.2L109.46,127.9L110.17,194.33L110.88,106.1L111.59,129.15L112.3,143.52L113.01,109.45L113.73,119.16L114.44,145.93L115.15,128.19L115.86,146.1L116.57,116.17L117.28,124.07L117.99,113.22L118.7,132.45L120.12,106.07L120.83,119.42L121.54,155.56L122.25,134.4L122.97,131.84L123.68,139.19L124.39,107.11L125.1,164.29L125.81,138.57L126.52,150.49L127.23,127.3L127.94,142.61L128.65,122.73L129.36,124.81L130.07,121.21L130.78,176.46L131.5,142.75L132.21,164.63L133.63,115.77L134.34,120.49L135.05,164.5L135.76,133.49L136.47,124.67L137.18,135.33L138.6,121.75L139.31,126.89L140.74,115.02L141.45,111.58L142.16,115.14L142.87,179.4L144.29,147.88L145,154.52L146.42,149.35L147.13,147.87L148.55,121.86L149.26,126.43L149.98,126.29L150.69,109.35L151.4,99.93L152.11,115.44L152.82,95.64L153.53,114.69L154.24,86.21L154.95,123.21L155.66,110.74L156.37,146.42L157.08,105.59L157.79,123.39L158.5,107.21L159.22,128.85L159.93,180.36L160.64,179.33L161.35,152.22L162.06,238.46L162.77,209.54L163.48,128.99L164.19,143.36L164.9,93.68L165.61,118.53L166.32,118.96L167.03,152.84L167.75,181.58L168.46,91.22L169.88,148.74L170.59,92.86L172.01,135.69L172.72,103.2L173.43,117.21L174.14,161.72L174.85,260.98L175.56,113.61L176.27,100.86L176.99,108.41L177.7,155.41L178.41,131.2L179.12,126.65L179.83,109.57L180.54,140.8L181.25,115.01L181.96,128.95L182.67,183.95L184.09,116.71L184.8,108.62L185.51,124.51L186.23,184.95L186.94,102.72L187.65,111.65L188.36,124.27L189.07,107.47L189.78,124.54L190.49,198.94L191.2,313.5L191.91,120.72L193.33,105.52L194.04,113.64L194.75,110.14L195.47,159.92L196.18,160.82L196.89,167.36L197.6,131.23L198.31,160.68L199.02,138.91L199.73,57.16L201.15,135.75L201.86,104.25L203.28,120.89L204,110.51L204.71,160.69L205.42,145.45L206.84,104.24L207.55,118.98L208.26,103.9L208.97,132.14L210.39,96.36L211.1,98.77L212.52,32.94L213.24,86.63L213.95,44.82L214.66,127.74L215.37,159.46L216.08,48.14L217.5,157.56L218.21,104.14L218.92,118.36L219.63,33.48L221.05,116.16L221.76,136.75L222.48,41.65L223.19,84.61L224.61,38.64L225.32,111.8L226.03,30.73L226.74,101.34L227.45,124.19L228.16,106.59L228.87,101.47L229.58,33.72L230.29,45.29L231,120.4L231.72,107.01L232.43,154.62L233.85,114.1L234.56,106.95L235.27,110.01L235.98,27.56L237.4,111.42L238.11,67.72L238.82,58.12L239.53,206.57L240.96,48.71L241.67,73.29L242.38,34.87L243.09,112.29L243.8,27.58L244.51,46.89L245.22,42.86L245.93,62.14L246.64,45.86L247.35,45.96L248.06,34.79L248.77,28.67L249.49,44.47L250.2,48.33L250.91,63.67L251.62,78.89L252.33,28.45L253.04,58.3L253.75,51.43L255.17,36.54L255.88,46.67L257.3,43.85L258.01,81.02L258.73,79.46L259.44,61.26L260.86,42.16L261.57,96.84L262.28,95.9L262.99,43.87L263.7,53.38L264.41,31.72L265.83,57.39L266.54,42.59L267.25,44.76L267.97,76.55L268.68,39.57L269.39,60.79L270.1,54.63L270.81,39.77L271.52,81.01L272.23,35.38L273.65,53.83L274.36,40.03L275.07,92.83L275.78,33.09L277.21,52.98L277.92,46.95L278.63,62.74L279.34,41.69L280.05,96.59L280.76,38.81L281.47,54.91L282.18,54.62L282.89,31.75L284.31,55.92L285.02,35.38L285.74,44.38L286.45,122.17L287.16,23.95L287.87,41.95L288.58,43.41L289.29,48.96L290,27.26L290.71,34.24L291.42,37.45L292.13,45.7L292.84,20.93L293.55,43.51L294.26,27.36L294.98,43.38L296.4,37.9L297.11,55.13L297.82,41.25L298.53,45.28L299.24,102.62L299.95,29.56L301.37,104.18L302.08,43.49L302.79,47.94L303.5,33.34L304.22,114.72L304.93,58.59L305.64,119.72L306.35,49.08L307.77,25.43L308.48,31.98L309.19,104.12L309.9,37.24L310.61,42.16L311.32,38.84L312.03,28.74L312.75,98.51L313.46,32.71L314.17,41.28L314.88,38.57L315.59,42.92L316.3,51.25L317.01,46.05L317.72,27.71L318.43,114.85L319.14,34.43L319.85,40.44L320.56,33.72L321.27,46.88L322.7,29.55L323.41,32.46L324.12,33.16L324.83,35.09L326.25,38.35L326.96,27.92L327.67,40.58L328.38,28.31L329.09,42.07L329.8,40.83L331.23,51.92L331.94,112.81L332.65,31.98L333.36,35.01L334.07,36.98L334.78,43.65L335.49,33.05L336.91,42.06L337.62,38.07L338.33,38.12L339.04,39.13L339.75,29.02L340.47,41.53L341.18,106.97L341.89,29.22L343.31,22.75L344.02,42.21L344.73,31.89L345.44,33.74L346.15,32.96L346.86,88.67L347.57,30.42L348.28,32.42L349,31.31L350.42,22.13L351.13,32.31L351.84,23.13L352.55,26.59L353.26,41.5L353.97,33.96L354.68,20L355.39,33.13L356.81,48.25L357.52,32.51L358.95,35.44L359.66,27.07L360.37,97.98L361.08,48.82L361.79,34.27L362.5,41.59L363.21,28.17L363.92,167.83L365.34,38.57L366.05,33.57L366.76,179.78L367.48,40.31L368.19,33.54L368.9,78.18L369.61,24.83L370.32,36.11L371.03,35.41L371.74,37.93L372.45,25.17L373.16,32.51L374.58,28.62L375.29,41.09L376.72,27.75L377.43,35.63L378.14,27L378.85,96.49L380.27,22.39L380.98,34.84L381.69,106.82L382.4,26.55L383.11,32.12L383.82,105.75L384.53,25.62L385.25,35.11L385.96,38.89L386.67,29.75L387.38,48.03L388.09,35.69L389.51,26.21L390.22,107.76L390.93,22.88L391.64,32.97L393.06,17.86L393.77,42.7L394.49,21.96L395.2,101.53L396.62,25.42L397.33,31.71L398.75,24.76L399.46,75.44L400.88,93.51L401.59,19.53L402.3,29.68L403.01,100.17L403.73,105.76L404.44,98.98L405.15,99.65L405.86,103.15L406.57,110.56L407.28,107.21L408.7,104.72L409.41,104.57L410.12,105.41L410.83,100.68L411.54,51.02L412.25,51.76L412.97,110.4L413.68,93.92L414.39,104.73L415.81,18.83L416.52,101.9L417.23,94.63L417.94,105.96L418.65,102.79L419.36,113.25L420.07,106.52L420.78,111.06L422.21,102.1L422.92,88.29L423.63,30.23L424.34,102.8L425.05,103.99L425.76,108.75L427.18,100.51L427.89,112.79L428.6,99.33L429.31,109.36L430.02,101.63L430.74,120.01L432.16,96.49L432.87,19.93L434.29,107.82L435,104.68L437.13,97.4L437.84,105.9L438.55,103.04L439.26,111.79L440.69,28.98L441.4,100.85L442.11,25.73L442.82,26.06L443.53,31.99L444.24,23.91L444.95,44.63L446.37,28.13L447.08,41.2L447.79,25.47L448.5,93.79L449.22,41.68L449.93,102.21L451.35,31.4L452.06,39.34L452.77,100.34L453.48,35.07L454.19,27.87L454.9,29.18L455.61,96.23L456.32,37.54L457.03,38.28L457.75,113.96L459.17,29.77L459.88,32.24L460.59,49.93L461.3,37.32L462.01,26.28L462.72,37.03L464.14,19.82L464.85,42.95L466.27,17.99L466.99,244.36L468.41,31.72L469.12,33.95L470.54,34.88L471.25,26.49L471.96,28.14L472.67,35.23L473.38,36.16L474.09,42.27L474.8,25.67L475.51,32.88L476.23,31.06L476.94,47.2L478.36,28.59L479.07,32.69L479.78,33.37L480.49,93.5L481.2,23.09L481.91,35.36L482.62,26.45L483.33,34.52L484.04,23.87L484.75,45.9L485.47,21.97L486.18,39.22L486.89,27.55L487.6,30.87L488.31,35.59L489.02,23.69L489.73,17.58L490.44,27.82L491.15,37.62L491.86,36.37L493.28,25.98L494,145.74L494.71,20.81L495.42,29.19L496.13,35.77L496.84,28.11L497.55,22.51L498.26,33.17L498.97,28.38L499.68,38.26L500.39,29.63L501.1,39.82L501.81,32.52L502.52,34.89L503.95,23.48L504.66,24.55L505.37,27.97L506.08,39.3L506.79,23.8L507.5,28.63L508.21,65.5L508.92,28.19L509.63,26.17L510.34,29.57L511.05,21.1L511.76,33.51L512.48,38.08L513.19,26.64L514.61,27.34L515.32,48.9L516.03,28.5L516.74,125.92L517.45,23.94L518.16,38.74L518.87,48.71L519.58,34.44L520.29,31.04L521,35.95L521.72,126.28L522.43,27.03L523.14,47.99L523.85,35.98L524.56,58.76L525.27,32.65L526.69,40.48L527.4,32.82L528.11,37.51L528.82,28.15L529.53,102.8L530.25,33.65L530.96,45.78L531.67,31.15L532.38,35.7L533.09,24.13L533.8,35.97L534.51,21.59L535.22,19.13L535.93,23.59L536.64,36.46L537.35,29.57L538.06,31.39L538.77,28.09L539.49,33.29L540.2,30.96L540.91,29.74L541.62,20.76L542.33,26.09L543.04,16.5L544.46,28.46L545.17,25.32L546.59,29.09L547.3,41.86L548.01,55.91L548.73,38.37L550.15,30.99L550.86,32.92L552.28,19.86L552.99,33.39L553.7,32.72L554.41,28.32L555.12,35.25L555.83,29.72L556.54,41.68L557.25,32.91L557.97,32.47L558.68,25.3L559.39,32.91L560.1,23.35L560.81,22.76L561.52,50.49L562.23,26.24L562.94,29.54L564.36,31.44L565.07,35.68L565.78,37.01L566.5,43.63L568.63,28.77L569.34,35.87L570.05,42.02L570.76,25.86L571.47,115.37L572.18,29.74L572.89,40.59L573.6,35.74L574.31,26.08L575.02,137.32L576.45,29.75L577.16,29.24L577.87,38.16L578.58,24.82L579.29,46.24L580,137.2" style="vector-effect: non-scaling-stroke; fill: none; stroke: rgb(255, 127, 14); stroke-opacity: 1; stroke-width: 2px; opacity: 1;"/></g><g class="points"/><g class="text"/></g></g></g><g class="overplot"/><path class="xlines-above crisp" d="M0,0" style="fill: none;"/><path class="ylines-above crisp" d="M0,0" style="fill: none;"/><g class="overlines-above"/><g class="xaxislayer-above"><g class="xtick"><text text-anchor="middle" x="0" y="403" transform="translate(60,0)" style="font-family: 'Open Sans', verdana, arial, sans-serif; font-size: 12px; fill: rgb(68, 68, 68); fill-opacity: 1; white-space: pre;">0</text></g><g class="xtick"><text text-anchor="middle" x="0" y="403" transform="translate(131.07999999999998,0)" style="font-family: 'Open Sans', verdana, arial, sans-serif; font-size: 12px; fill: rgb(68, 68, 68); fill-opacity: 1; white-space: pre;">100</text></g><g class="xtick"><text text-anchor="middle" x="0" y="403" transform="translate(202.16,0)" style="font-family: 'Open Sans', verdana, arial, sans-serif; font-size: 12px; fill: rgb(68, 68, 68); fill-opacity: 1; white-space: pre;">200</text></g><g class="xtick"><text text-anchor="middle" x="0" y="403" transform="translate(273.24,0)" style="font-family: 'Open Sans', verdana, arial, sans-serif; font-size: 12px; fill: rgb(68, 68, 68); fill-opacity: 1; white-space: pre;">300</text></g><g class="xtick"><text text-anchor="middle" x="0" y="403" transform="translate(344.31,0)" style="font-family: 'Open Sans', verdana, arial, sans-serif; font-size: 12px; fill: rgb(68, 68, 68); fill-opacity: 1; white-space: pre;">400</text></g><g class="xtick"><text text-anchor="middle" x="0" y="403" transform="translate(415.39,0)" style="font-family: 'Open Sans', verdana, arial, sans-serif; font-size: 12px; fill: rgb(68, 68, 68); fill-opacity: 1; white-space: pre;">500</text></g><g class="xtick"><text text-anchor="middle" x="0" y="403" transform="translate(486.47,0)" style="font-family: 'Open Sans', verdana, arial, sans-serif; font-size: 12px; fill: rgb(68, 68, 68); fill-opacity: 1; white-space: pre;">600</text></g><g class="xtick"><text text-anchor="middle" x="0" y="403" transform="translate(557.55,0)" style="font-family: 'Open Sans', verdana, arial, sans-serif; font-size: 12px; fill: rgb(68, 68, 68); fill-opacity: 1; white-space: pre;">700</text></g><g class="xtick"><text text-anchor="middle" x="0" y="403" transform="translate(628.63,0)" style="font-family: 'Open Sans', verdana, arial, sans-serif; font-size: 12px; fill: rgb(68, 68, 68); fill-opacity: 1; white-space: pre;">800</text></g></g><g class="yaxislayer-above"><g class="ytick"><text text-anchor="end" x="59" y="4.199999999999999" transform="translate(0,357.01)" style="font-family: 'Open Sans', verdana, arial, sans-serif; font-size: 12px; fill: rgb(68, 68, 68); fill-opacity: 1; white-space: pre;">−600</text></g><g class="ytick"><text text-anchor="end" x="59" y="4.199999999999999" transform="translate(0,295.85)" style="font-family: 'Open Sans', verdana, arial, sans-serif; font-size: 12px; fill: rgb(68, 68, 68); fill-opacity: 1; white-space: pre;">−400</text></g><g class="ytick"><text text-anchor="end" x="59" y="4.199999999999999" transform="translate(0,234.69)" style="font-family: 'Open Sans', verdana, arial, sans-serif; font-size: 12px; fill: rgb(68, 68, 68); fill-opacity: 1; white-space: pre;">−200</text></g><g class="ytick"><text text-anchor="end" x="59" y="4.199999999999999" transform="translate(0,173.53)" style="font-family: 'Open Sans', verdana, arial, sans-serif; font-size: 12px; fill: rgb(68, 68, 68); fill-opacity: 1; white-space: pre;">0</text></g><g class="ytick"><text text-anchor="end" x="59" y="4.199999999999999" transform="translate(0,112.37)" style="font-family: 'Open Sans', verdana, arial, sans-serif; font-size: 12px; fill: rgb(68, 68, 68); fill-opacity: 1; white-space: pre;">200</text></g></g><g class="overaxes-above"/></g></g><g class="polarlayer"/><g class="ternarylayer"/><g class="geolayer"/><g class="funnelarealayer"/><g class="pielayer"/><g class="treemaplayer"/><g class="sunburstlayer"/><g class="glimages"/><defs id="topdefs-13a56a"><g class="clips"/></defs><g class="layer-above"><g class="imagelayer"/><g class="shapelayer"/></g><g class="infolayer"><g class="g-gtitle"><text class="gtitle" x="350" y="30" text-anchor="middle" dy="0em" style="font-family: 'Open Sans', verdana, arial, sans-serif; font-size: 17px; fill: rgb(68, 68, 68); opacity: 1; font-weight: normal; white-space: pre;">Rewards per episode</text></g><g class="g-xtitle"><text class="xtitle" x="350" y="442" text-anchor="middle" style="font-family: 'Open Sans', verdana, arial, sans-serif; font-size: 14px; fill: rgb(68, 68, 68); opacity: 1; font-weight: normal; white-space: pre;">episode number</text></g><g class="g-ytitle"><text class="ytitle" transform="rotate(-90,22,225)" x="22" y="225" text-anchor="middle" style="font-family: 'Open Sans', verdana, arial, sans-serif; font-size: 14px; fill: rgb(68, 68, 68); opacity: 1; font-weight: normal; white-space: pre;">episode reward</text></g></g></svg>