<svg class="main-svg" xmlns="http://www.w3.org/2000/svg" xmlns:xlink="http://www.w3.org/1999/xlink" width="700" height="450" style="" viewBox="0 0 700 450"><rect x="0" y="0" width="700" height="450" style="fill: rgb(255, 255, 255); fill-opacity: 1;"/><defs id="defs-29adb9"><g class="clips"><clipPath id="clip29adb9xyplot" class="plotclip"><rect width="580" height="330"/></clipPath><clipPath class="axesclip" id="clip29adb9x"><rect x="60" y="0" width="580" height="450"/></clipPath><clipPath class="axesclip" id="clip29adb9y"><rect x="0" y="60" width="700" height="330"/></clipPath><clipPath class="axesclip" id="clip29adb9xy"><rect x="60" y="60" width="580" height="330"/></clipPath></g><g class="gradients"/></defs><g class="bglayer"/><g class="layer-below"><g class="imagelayer"/><g class="shapelayer"/></g><g class="cartesianlayer"><g class="subplot xy"><g class="layer-subplot"><g class="shapelayer"/><g class="imagelayer"/></g><g class="gridlayer"><g class="x"><path class="xgrid crisp" transform="translate(131.07999999999998,0)" d="M0,60v330" style="stroke: rgb(238, 238, 238); stroke-opacity: 1; stroke-width: 1px;"/><path class="xgrid crisp" transform="translate(202.16,0)" d="M0,60v330" style="stroke: rgb(238, 238, 238); stroke-opacity: 1; stroke-width: 1px;"/><path class="xgrid crisp" transform="translate(273.24,0)" d="M0,60v330" style="stroke: rgb(238, 238, 238); stroke-opacity: 1; stroke-width: 1px;"/><path class="xgrid crisp" transform="translate(344.31,0)" d="M0,60v330" style="stroke: rgb(238, 238, 238); stroke-opacity: 1; stroke-width: 1px;"/><path class="xgrid crisp" transform="translate(415.39,0)" d="M0,60v330" style="stroke: rgb(238, 238, 238); stroke-opacity: 1; stroke-width: 1px;"/><path class="xgrid crisp" transform="translate(486.47,0)" d="M0,60v330" style="stroke: rgb(238, 238, 238); stroke-opacity: 1; stroke-width: 1px;"/><path class="xgrid crisp" transform="translate(557.55,0)" d="M0,60v330" style="stroke: rgb(238, 238, 238); stroke-opacity: 1; stroke-width: 1px;"/><path class="xgrid crisp" transform="translate(628.63,0)" d="M0,60v330" style="stroke: rgb(238, 238, 238); stroke-opacity: 1; stroke-width: 1px;"/></g><g class="y"><path class="ygrid crisp" transform="translate(0,373.16)" d="M60,0h580" style="stroke: rgb(238, 238, 238); stroke-opacity: 1; stroke-width: 1px;"/><path class="ygrid crisp" transform="translate(0,297.3)" d="M60,0h580" style="stroke: rgb(238, 238, 238); stroke-opacity: 1; stroke-width: 1px;"/><path class="ygrid crisp" transform="translate(0,145.57999999999998)" d="M60,0h580" style="stroke: rgb(238, 238, 238); stroke-opacity: 1; stroke-width: 1px;"/><path class="ygrid crisp" transform="translate(0,69.73)" d="M60,0h580" style="stroke: rgb(238, 238, 238); stroke-opacity: 1; stroke-width: 1px;"/></g></g><g class="zerolinelayer"><path class="xzl zl crisp" transform="translate(60,0)" d="M0,60v330" style="stroke: rgb(68, 68, 68); stroke-opacity: 1; stroke-width: 1px;"/><path class="yzl zl crisp" transform="translate(0,221.44)" d="M60,0h580" style="stroke: rgb(68, 68, 68); stroke-opacity: 1; stroke-width: 1px;"/></g><path class="xlines-below"/><path class="ylines-below"/><g class="overlines-below"/><g class="xaxislayer-below"/><g class="yaxislayer-below"/><g class="overaxes-below"/><g class="plot" transform="translate(60, 60)" clip-path="url('#clip29adb9xyplot')"><g class="scatterlayer mlayer"><g class="trace scatter trace58c074" style="stroke-miterlimit: 2; opacity: 1;"><g class="fills"/><g class="errorbars"/><g class="lines"/><g class="points"/><g class="text"/></g><g class="trace scatter tracee53e90" style="stroke-miterlimit: 2; opacity: 1;"><g class="fills"/><g class="errorbars"/><g class="lines"><path class="js-line" d="M0.71,161.27L1.42,160.89L2.13,165.38L2.84,163.16L3.55,155.32L4.26,158.4L4.98,143.33L5.69,135.66L6.4,139.16L7.82,188.94L8.53,132.02L9.24,129.97L9.95,140.57L11.37,122.31L12.08,166.54L12.79,125.59L13.5,133.38L14.93,167.08L15.64,158.62L16.35,197.49L17.06,157.3L19.19,255.42L19.9,176.25L20.61,100.56L21.32,157.85L22.03,173.65L22.75,172.11L24.88,77.59L25.59,151.82L26.3,170.33L27.01,120.2L27.72,126.01L28.43,144.82L29.14,70.74L29.85,146.75L30.56,136.45L31.27,105.53L31.99,100.64L32.7,76.71L34.12,121.43L34.83,80.37L35.54,125.48L36.25,92.81L36.96,105.23L37.67,79.06L38.38,94.12L39.09,55.18L39.8,66.39L40.51,40.01L41.23,88.1L41.94,72.77L42.65,78.49L43.36,70.4L44.07,87.56L44.78,63.04L45.49,86.14L46.2,69.32L46.91,58.64L47.62,118.49L49.04,66.51L49.75,77.27L50.47,103.53L51.18,86.09L51.89,131.46L52.6,130.48L53.31,105.52L54.02,105.07L54.73,112.24L56.15,147.92L56.86,109.55L57.57,187.17L58.28,134.41L59,148.83L59.71,127.09L60.42,166.24L61.13,117.86L61.84,149.12L62.55,142.06L63.26,156.41L63.97,130.7L64.68,147.56L65.39,134.87L66.1,129.18L66.81,199.61L67.52,142.33L68.24,213.73L68.95,123.24L69.66,124.87L70.37,113.11L72.5,201.81L73.21,197.23L73.92,134.66L74.63,186.31L75.34,151.23L76.05,202.72L76.76,164.32L77.48,180.86L78.19,187.67L78.9,169.03L80.32,104.46L81.03,277.57L82.45,105.49L83.16,107.11L83.87,213.06L84.58,117.3L85.29,124.63L86,234.76L86.72,139.15L87.43,143.58L88.14,100.28L88.85,212.95L89.56,112.29L90.27,207.32L90.98,165.22L92.4,145.92L93.11,182.37L93.82,93.3L94.53,182.19L95.25,76.36L95.96,145.42L96.67,175.76L97.38,116.68L98.09,108.59L98.8,164.78L100.22,105.69L100.93,154.1L101.64,120.93L102.35,159.84L103.77,124.01L104.49,155.11L105.2,79.36L105.91,145.3L106.62,139.36L107.33,146.45L108.04,108.33L108.75,150.67L109.46,81.98L110.17,198.58L111.59,88.68L112.3,103.3L113.01,94.26L113.73,145.15L114.44,93.59L115.15,141.76L116.57,106.18L117.28,97.13L117.99,113.52L118.7,103L119.41,121.17L120.12,112.1L120.83,73.11L121.54,98.1L122.25,93.34L122.97,109.28L123.68,136.87L124.39,96.61L125.81,120.57L126.52,168.37L127.23,152.82L127.94,85.69L128.65,123.99L129.36,113.98L130.07,100.43L130.78,116.95L131.5,125.59L132.21,103.15L132.92,98.26L133.63,83.81L134.34,110.49L135.05,107.56L135.76,113.98L136.47,87.37L137.89,128.09L138.6,114.06L139.31,126.06L140.02,100.75L140.74,129.54L141.45,96.76L142.87,139.36L143.58,105.92L144.29,84.82L145,103.53L145.71,81.67L146.42,85.83L147.13,83.38L147.84,91.19L148.55,91.78L149.26,67.7L151.4,108.77L152.11,89.29L152.82,75.46L153.53,94.59L154.24,72.14L154.95,98.2L155.66,94.55L156.37,96.17L157.08,79.68L157.79,130.2L159.22,116.26L159.93,126.28L160.64,83.65L161.35,95.04L162.06,99.92L162.77,85.93L163.48,159.14L164.19,133.41L164.9,145.11L165.61,123.54L166.32,124.3L167.03,164.96L167.75,121.87L168.46,142.09L169.88,108.45L170.59,237.98L172.01,121.46L172.72,149.91L173.43,128.74L174.14,168.62L174.85,208.23L175.56,159.17L176.27,63.61L176.99,142.73L177.7,108.57L178.41,124.34L179.12,126.54L179.83,150.55L180.54,89.87L181.25,127.41L181.96,130.31L182.67,154.59L184.09,133.08L184.8,142.28L185.51,191.75L186.23,174.13L186.94,123.73L187.65,144.09L188.36,126.35L189.07,138.5L189.78,124.1L190.49,143.2L191.2,313.5L191.91,141.58L192.62,146.19L193.33,137.91L194.04,148.51L194.75,136.83L195.47,139.51L196.18,136.8L196.89,180.03L197.6,143.19L198.31,155.52L199.02,196.56L199.73,134.97L200.44,135.24L201.15,120.9L202.57,148.64L203.28,148.11L204,149.82L204.71,146.87L205.42,138.7L206.13,146.95L206.84,141.07L207.55,158.14L208.26,145.22L208.97,107.62L209.68,106.98L210.39,145.38L211.1,142.68L211.81,133.06L212.52,110.47L213.24,140.25L213.95,122.47L214.66,145.43L216.08,121.97L216.79,150.18L217.5,131.93L218.21,80.74L218.92,146.25L219.63,131.35L220.34,140.39L221.05,119.63L221.76,94.53L222.48,127.11L223.19,135.91L223.9,121L224.61,131.7L225.32,35.27L226.03,129.42L226.74,73.49L227.45,83.8L228.16,46.9L228.87,64.81L229.58,107.74L230.29,124.86L231,88.27L231.72,86.75L232.43,115.34L233.14,111.01L233.85,90.85L234.56,69.21L235.27,150.14L235.98,114.13L236.69,143.55L237.4,73.2L238.11,147.39L238.82,143.01L239.53,152.73L240.25,42.36L240.96,131.18L241.67,135.02L242.38,129.82L243.09,40.41L243.8,106.46L244.51,134.84L245.22,133.37L245.93,139.38L246.64,139.53L247.35,123.51L248.06,136.53L248.77,124.57L250.2,139.09L250.91,148.43L252.33,117.04L253.04,144.84L254.46,137.87L255.17,112.77L255.88,134.68L256.59,128.11L258.01,142.24L258.73,137.32L259.44,145.93L260.15,126.5L262.28,146.6L262.99,128.2L263.7,144.83L264.41,125.56L265.12,127.28L265.83,137.39L267.25,140.79L267.97,147.75L268.68,135.34L269.39,148.35L270.1,143.55L270.81,131.92L272.23,138.19L272.94,147.29L273.65,139.26L274.36,142.5L275.07,149.44L275.78,126.31L277.21,143.64L277.92,142.72L278.63,152.21L279.34,137.21L280.05,69.89L280.76,132.88L281.47,143.42L282.18,137.29L282.89,117.85L283.6,141.2L284.31,145.07L285.02,126.56L285.74,126.58L286.45,87.55L287.87,132.92L288.58,133.06L290,116.33L290.71,134.51L292.13,129.24L292.84,127.89L293.55,136.87L294.26,129.12L294.98,128.29L295.69,121L296.4,110.85L297.11,140.44L298.53,123.42L299.24,65.55L300.66,117.57L301.37,125.5L302.08,122.78L302.79,130.26L303.5,130.38L304.22,114.54L304.93,138.73L305.64,104.08L306.35,136.51L307.06,128.85L307.77,107.38L308.48,112.26L309.19,83.31L309.9,109.81L310.61,134.81L311.32,106.18L312.03,123.04L312.75,77.28L313.46,121.64L314.17,98.13L315.59,115.53L316.3,125.7L317.01,111.08L317.72,113.29L318.43,93.27L319.14,122.38L320.56,107.24L321.27,116.74L321.99,128.37L322.7,100.66L324.12,122.79L324.83,103.14L326.25,120.25L326.96,120.19L327.67,133.48L328.38,131.5L329.8,116.24L330.51,128.92L331.23,136.74L331.94,78.92L332.65,119.22L333.36,94.03L334.78,129.76L335.49,99.91L336.2,100.35L336.91,124.11L337.62,104.61L338.33,125.3L339.04,123.45L339.75,105.21L340.47,126.22L341.18,125.23L341.89,120.67L343.31,104.36L344.02,122.15L344.73,112.34L345.44,128.17L346.15,115.99L346.86,52.32L347.57,109.73L348.28,108.61L349,107.57L349.71,100.18L350.42,79.26L351.13,78.35L351.84,110.71L352.55,111.16L353.26,128.44L353.97,125.78L354.68,109.01L355.39,114.43L356.1,130.76L356.81,134.4L357.52,114.33L358.24,119.57L358.95,106.96L359.66,109.04L360.37,75.58L361.08,132.73L361.79,122.89L362.5,143.6L363.21,107.7L364.63,130.7L365.34,116.6L366.05,103.48L366.76,140.63L367.48,111.15L368.19,121.55L368.9,132.5L369.61,108.59L370.32,117.86L371.03,116.16L372.45,95.1L373.16,113.84L373.87,88.96L374.58,104.55L375.29,121.52L376,115.99L376.72,107.72L377.43,130.17L378.85,68.94L379.56,103.86L380.27,70.46L380.98,101.36L381.69,78.1L382.4,83.84L383.11,90.54L383.82,82.69L384.53,83.64L385.25,118.01L386.67,109.38L387.38,115.88L388.09,101.9L388.8,119.7L390.22,74.53L390.93,70.44L393.06,100.05L393.77,125.71L394.49,103.6L395.2,57.3L395.91,100.72L396.62,85.87L397.33,80.07L398.04,102.83L398.75,105.73L399.46,130.43L400.88,24.2L401.59,88.71L402.3,81.04L403.01,49.78L403.73,63.26L404.44,21.24L406.57,48.06L407.28,30.16L408.7,40.93L409.41,25.19L410.83,48.97L411.54,120.48L412.25,103.59L412.97,66.14L413.68,25.51L414.39,55.58L415.1,117.49L415.81,68.62L417.23,24.94L417.94,42.03L418.65,35.13L419.36,52.77L420.78,30.57L421.5,34.84L422.21,32.59L422.92,127.64L423.63,107.44L424.34,36.34L425.05,23.18L425.76,23.29L426.47,18.77L427.18,18.54L427.89,16.5L428.6,20L429.31,27.81L430.02,21.99L430.74,24.64L431.45,17.9L432.16,31.54L432.87,87.27L433.58,35.87L434.29,37.72L435,29.25L435.71,30.65L436.42,41.68L437.13,25.4L437.84,29.58L438.55,20.59L439.26,58.72L439.98,113.7L440.69,75.18L441.4,38.93L442.11,67.11L442.82,79.97L443.53,74.81L444.95,92.3L445.66,81.47L447.08,96.94L447.79,96.31L448.5,76.85L449.22,106.47L449.93,86.22L450.64,116.52L451.35,109.01L452.06,115.57L452.77,49.46L453.48,92.36L454.19,108.49L454.9,101.14L455.61,65.43L456.32,108.53L457.75,86.09L458.46,94.91L459.17,86.25L459.88,115.43L460.59,112.98L461.3,113.27L462.01,88.14L462.72,104.23L463.43,103.21L464.14,92.65L464.85,112L465.56,101.05L466.27,82.83L466.99,118.35L468.41,93.9L469.12,99.96L469.83,107.31L470.54,106.16L471.96,90.87L472.67,99.87L474.09,111.93L474.8,97.86L475.51,122.2L476.23,104.61L476.94,128.38L477.65,104.92L478.36,90.55L479.07,109.25L479.78,119.25L480.49,57.04L481.91,117.82L482.62,91.07L483.33,111.4L484.04,96.85L484.75,115.51L485.47,102.38L486.18,105.99L486.89,88.3L487.6,109.55L488.31,75.13L489.02,99.95L489.73,67.74L490.44,92.8L491.15,81.37L491.86,118.27L492.57,110.49L493.28,109.68L494,151.2L495.42,79.69L496.13,106.19L497.55,74.35L498.26,96.12L498.97,101.83L499.68,101.6L500.39,79.33L501.1,108.02L501.81,104.51L502.52,119.03L503.24,99.43L503.95,85.36L504.66,92.11L505.37,89.85L506.08,117.8L506.79,109.71L507.5,87.54L508.21,127.46L508.92,102.5L509.63,92.6L510.34,96.24L511.05,76.28L511.76,110.66L512.48,114L513.19,86.04L514.61,102.11L515.32,122.22L516.03,98L516.74,114.96L517.45,108.4L518.16,114.08L518.87,118.38L519.58,112.21L520.29,109.35L521,95.92L521.72,130.13L522.43,106.23L523.14,136.59L523.85,110.47L524.56,137.03L525.27,119.5L526.69,129.24L527.4,109.74L528.11,109.88L528.82,89.47L529.53,55.54L530.25,123.63L530.96,139.01L531.67,94.59L532.38,124.48L533.09,92.92L533.8,91.15L534.51,70.57L535.22,91.59L535.93,55.61L536.64,115.95L537.35,87.55L538.77,105.06L539.49,92.4L540.2,89.01L540.91,106.39L541.62,83.98L542.33,114.18L543.04,73.99L543.75,101.23L545.17,84.01L545.88,97.27L546.59,103.52L547.3,121.79L548.01,129.02L548.73,106.59L549.44,109.82L550.15,93.98L550.86,104.23L551.57,86.02L552.28,84.21L552.99,85.99L553.7,95.32L554.41,120.07L555.12,87.03L555.83,111.64L556.54,103.48L557.25,117.11L557.97,127.55L558.68,116.58L559.39,130.33L560.1,77.5L560.81,80.29L561.52,132.56L562.94,99.08L563.65,98L565.07,113.55L565.78,112.2L566.5,117.14L567.21,105.24L567.92,96.95L568.63,107.61L569.34,100.88L570.05,120.61L570.76,100.6L571.47,23.96L572.89,103.39L573.6,116.55L574.31,97.31L575.02,131.92L575.74,96.74L576.45,99.48L577.87,92.43L578.58,94.09L580,126.48" style="vector-effect: non-scaling-stroke; fill: none; stroke: rgb(255, 127, 14); stroke-opacity: 1; stroke-width: 2px; opacity: 1;"/></g><g class="points"/><g class="text"/></g></g></g><g class="overplot"/><path class="xlines-above crisp" d="M0,0" style="fill: none;"/><path class="ylines-above crisp" d="M0,0" style="fill: none;"/><g class="overlines-above"/><g class="xaxislayer-above"><g class="xtick"><text text-anchor="middle" x="0" y="403" transform="translate(60,0)" style="font-family: 'Open Sans', verdana, arial, sans-serif; font-size: 12px; fill: rgb(68, 68, 68); fill-opacity: 1; white-space: pre;">0</text></g><g class="xtick"><text text-anchor="middle" x="0" y="403" transform="translate(131.07999999999998,0)" style="font-family: 'Open Sans', verdana, arial, sans-serif; font-size: 12px; fill: rgb(68, 68, 68); fill-opacity: 1; white-space: pre;">100</text></g><g class="xtick"><text text-anchor="middle" x="0" y="403" transform="translate(202.16,0)" style="font-family: 'Open Sans', verdana, arial, sans-serif; font-size: 12px; fill: rgb(68, 68, 68); fill-opacity: 1; white-space: pre;">200</text></g><g class="xtick"><text text-anchor="middle" x="0" y="403" transform="translate(273.24,0)" style="font-family: 'Open Sans', verdana, arial, sans-serif; font-size: 12px; fill: rgb(68, 68, 68); fill-opacity: 1; white-space: pre;">300</text></g><g class="xtick"><text text-anchor="middle" x="0" y="403" transform="translate(344.31,0)" style="font-family: 'Open Sans', verdana, arial, sans-serif; font-size: 12px; fill: rgb(68, 68, 68); fill-opacity: 1; white-space: pre;">400</text></g><g class="xtick"><text text-anchor="middle" x="0" y="403" transform="translate(415.39,0)" style="font-family: 'Open Sans', verdana, arial, sans-serif; font-size: 12px; fill: rgb(68, 68, 68); fill-opacity: 1; white-space: pre;">500</text></g><g class="xtick"><text text-anchor="middle" x="0" y="403" transform="translate(486.47,0)" style="font-family: 'Open Sans', verdana, arial, sans-serif; font-size: 12px; fill: rgb(68, 68, 68); fill-opacity: 1; white-space: pre;">600</text></g><g class="xtick"><text text-anchor="middle" x="0" y="403" transform="translate(557.55,0)" style="font-family: 'Open Sans', verdana, arial, sans-serif; font-size: 12px; fill: rgb(68, 68, 68); fill-opacity: 1; white-space: pre;">700</text></g><g class="xtick"><text text-anchor="middle" x="0" y="403" transform="translate(628.63,0)" style="font-family: 'Open Sans', verdana, arial, sans-serif; font-size: 12px; fill: rgb(68, 68, 68); fill-opacity: 1; white-space: pre;">800</text></g></g><g class="yaxislayer-above"><g class="ytick"><text text-anchor="end" x="59" y="4.199999999999999" transform="translate(0,373.16)" style="font-family: 'Open Sans', verdana, arial, sans-serif; font-size: 12px; fill: rgb(68, 68, 68); fill-opacity: 1; white-space: pre;">−100</text></g><g class="ytick"><text text-anchor="end" x="59" y="4.199999999999999" transform="translate(0,297.3)" style="font-family: 'Open Sans', verdana, arial, sans-serif; font-size: 12px; fill: rgb(68, 68, 68); fill-opacity: 1; white-space: pre;">−50</text></g><g class="ytick"><text text-anchor="end" x="59" y="4.199999999999999" transform="translate(0,221.44)" style="font-family: 'Open Sans', verdana, arial, sans-serif; font-size: 12px; fill: rgb(68, 68, 68); fill-opacity: 1; white-space: pre;">0</text></g><g class="ytick"><text text-anchor="end" x="59" y="4.199999999999999" transform="translate(0,145.57999999999998)" style="font-family: 'Open Sans', verdana, arial, sans-serif; font-size: 12px; fill: rgb(68, 68, 68); fill-opacity: 1; white-space: pre;">50</text></g><g class="ytick"><text text-anchor="end" x="59" y="4.199999999999999" transform="translate(0,69.73)" style="font-family: 'Open Sans', verdana, arial, sans-serif; font-size: 12px; fill: rgb(68, 68, 68); fill-opacity: 1; white-space: pre;">100</text></g></g><g class="overaxes-above"/></g></g><g class="polarlayer"/><g class="ternarylayer"/><g class="geolayer"/><g class="funnelarealayer"/><g class="pielayer"/><g class="treemaplayer"/><g class="sunburstlayer"/><g class="glimages"/><defs id="topdefs-29adb9"><g class="clips"/></defs><g class="layer-above"><g class="imagelayer"/><g class="shapelayer"/></g><g class="infolayer"><g class="g-gtitle"><text class="gtitle" x="350" y="30" text-anchor="middle" dy="0em" style="font-family: 'Open Sans', verdana, arial, sans-serif; font-size: 17px; fill: rgb(68, 68, 68); opacity: 1; font-weight: normal; white-space: pre;">Mean q-values per episode</text></g><g class="g-xtitle"><text class="xtitle" x="350" y="442" text-anchor="middle" style="font-family: 'Open Sans', verdana, arial, sans-serif; font-size: 14px; fill: rgb(68, 68, 68); opacity: 1; font-weight: normal; white-space: pre;">episode number</text></g><g class="g-ytitle"><text class="ytitle" transform="rotate(-90,22,225)" x="22" y="225" text-anchor="middle" style="font-family: 'Open Sans', verdana, arial, sans-serif; font-size: 14px; fill: rgb(68, 68, 68); opacity: 1; font-weight: normal; white-space: pre;">episode mean q-values</text></g></g></svg>