<svg class="main-svg" xmlns="http://www.w3.org/2000/svg" xmlns:xlink="http://www.w3.org/1999/xlink" width="700" height="450" style="" viewBox="0 0 700 450"><rect x="0" y="0" width="700" height="450" style="fill: rgb(255, 255, 255); fill-opacity: 1;"/><defs id="defs-542d8e"><g class="clips"><clipPath id="clip542d8exyplot" class="plotclip"><rect width="580" height="330"/></clipPath><clipPath class="axesclip" id="clip542d8ex"><rect x="60" y="0" width="580" height="450"/></clipPath><clipPath class="axesclip" id="clip542d8ey"><rect x="0" y="60" width="700" height="330"/></clipPath><clipPath class="axesclip" id="clip542d8exy"><rect x="60" y="60" width="580" height="330"/></clipPath></g><g class="gradients"/></defs><g class="bglayer"/><g class="layer-below"><g class="imagelayer"/><g class="shapelayer"/></g><g class="cartesianlayer"><g class="subplot xy"><g class="layer-subplot"><g class="shapelayer"/><g class="imagelayer"/></g><g class="gridlayer"><g class="x"><path class="xgrid crisp" transform="translate(131.07999999999998,0)" d="M0,60v330" style="stroke: rgb(238, 238, 238); stroke-opacity: 1; stroke-width: 1px;"/><path class="xgrid crisp" transform="translate(202.16,0)" d="M0,60v330" style="stroke: rgb(238, 238, 238); stroke-opacity: 1; stroke-width: 1px;"/><path class="xgrid crisp" transform="translate(273.24,0)" d="M0,60v330" style="stroke: rgb(238, 238, 238); stroke-opacity: 1; stroke-width: 1px;"/><path class="xgrid crisp" transform="translate(344.31,0)" d="M0,60v330" style="stroke: rgb(238, 238, 238); stroke-opacity: 1; stroke-width: 1px;"/><path class="xgrid crisp" transform="translate(415.39,0)" d="M0,60v330" style="stroke: rgb(238, 238, 238); stroke-opacity: 1; stroke-width: 1px;"/><path class="xgrid crisp" transform="translate(486.47,0)" d="M0,60v330" style="stroke: rgb(238, 238, 238); stroke-opacity: 1; stroke-width: 1px;"/><path class="xgrid crisp" transform="translate(557.55,0)" d="M0,60v330" style="stroke: rgb(238, 238, 238); stroke-opacity: 1; stroke-width: 1px;"/><path class="xgrid crisp" transform="translate(628.63,0)" d="M0,60v330" style="stroke: rgb(238, 238, 238); stroke-opacity: 1; stroke-width: 1px;"/></g><g class="y"><path class="ygrid crisp" transform="translate(0,328.98)" d="M60,0h580" style="stroke: rgb(238, 238, 238); stroke-opacity: 1; stroke-width: 1px;"/><path class="ygrid crisp" transform="translate(0,284.43)" d="M60,0h580" style="stroke: rgb(238, 238, 238); stroke-opacity: 1; stroke-width: 1px;"/><path class="ygrid crisp" transform="translate(0,239.88)" d="M60,0h580" style="stroke: rgb(238, 238, 238); stroke-opacity: 1; stroke-width: 1px;"/><path class="ygrid crisp" transform="translate(0,195.33)" d="M60,0h580" style="stroke: rgb(238, 238, 238); stroke-opacity: 1; stroke-width: 1px;"/><path class="ygrid crisp" transform="translate(0,150.78)" d="M60,0h580" style="stroke: rgb(238, 238, 238); stroke-opacity: 1; stroke-width: 1px;"/><path class="ygrid crisp" transform="translate(0,106.22999999999999)" d="M60,0h580" style="stroke: rgb(238, 238, 238); stroke-opacity: 1; stroke-width: 1px;"/><path class="ygrid crisp" transform="translate(0,61.68)" d="M60,0h580" style="stroke: rgb(238, 238, 238); stroke-opacity: 1; stroke-width: 1px;"/></g></g><g class="zerolinelayer"><path class="xzl zl crisp" transform="translate(60,0)" d="M0,60v330" style="stroke: rgb(68, 68, 68); stroke-opacity: 1; stroke-width: 1px;"/><path class="yzl zl crisp" transform="translate(0,373.53)" d="M60,0h580" style="stroke: rgb(68, 68, 68); stroke-opacity: 1; stroke-width: 1px;"/></g><path class="xlines-below"/><path class="ylines-below"/><g class="overlines-below"/><g class="xaxislayer-below"/><g class="yaxislayer-below"/><g class="overaxes-below"/><g class="plot" transform="translate(60, 60)" clip-path="url('#clip542d8exyplot')"><g class="scatterlayer mlayer"><g class="trace scatter trace2accba" style="stroke-miterlimit: 2; opacity: 1;"><g class="fills"/><g class="errorbars"/><g class="lines"/><g class="points"/><g class="text"/></g><g class="trace scatter trace49c1b3" style="stroke-miterlimit: 2; opacity: 1;"><g class="fills"/><g class="errorbars"/><g class="lines"><path class="js-line" d="M0.71,313.5L3.55,312.74L4.26,311.4L5.69,312.65L6.4,309.1L7.11,312.26L7.82,307.36L8.53,311.85L9.24,311.47L9.95,306.05L10.66,308.21L11.37,310.24L12.08,302.58L12.79,290.63L13.5,294.39L14.22,283.27L14.93,292.21L15.64,281.52L16.35,281.78L17.06,295.87L17.77,276.94L18.48,282.9L19.19,270.82L19.9,301.78L21.32,290.29L22.03,302.44L22.75,280.62L23.46,296.43L24.17,288.9L24.88,300.07L25.59,292.82L26.3,306.06L27.72,287.19L28.43,299.57L29.14,291.03L29.85,302.88L30.56,301.04L31.27,295.31L31.99,295.63L32.7,294.49L34.12,299.35L34.83,299.19L35.54,297.92L36.25,298.27L37.67,294.83L38.38,298.21L39.09,293.28L39.8,296.79L40.51,296.74L41.23,302.35L42.65,295.65L43.36,299.49L44.78,297.81L45.49,299.79L46.2,295.23L46.91,299.69L47.62,286.82L48.33,294.82L49.04,298.1L49.75,295.21L50.47,286.7L51.18,294.5L51.89,286.05L52.6,292.35L53.31,291.11L54.02,292.38L54.73,293.49L55.44,285.7L56.15,281.02L56.86,295.04L58.28,284.96L59,289.02L59.71,290.48L60.42,288.82L61.13,292.08L61.84,289.16L62.55,293.46L63.26,285.5L65.39,287.2L66.1,291.87L68.24,275.47L68.95,298.63L69.66,289.9L70.37,292.38L71.79,284.3L72.5,281.95L73.21,283.36L73.92,297.87L74.63,286.71L75.34,293.59L76.76,285.68L77.48,288.46L78.9,286.44L79.61,291.91L80.32,298.39L81.03,291.11L81.74,292.55L82.45,298.55L83.87,287.08L84.58,295.33L85.29,294.96L86,289.37L87.43,293.92L88.14,289.21L89.56,292.36L90.27,292.41L90.98,272.41L91.69,294.6L92.4,287.26L93.11,289.36L94.53,291.18L95.25,295.04L95.96,303.17L96.67,290.1L97.38,272.3L98.09,299.62L100.22,287.26L100.93,292.63L101.64,283.35L102.35,289.57L103.06,281.38L103.77,288.2L104.49,280.6L105.2,290.4L105.91,294.88L106.62,291.3L107.33,295.11L108.04,294.08L108.75,285L109.46,293.97L110.17,285.65L110.88,291.87L112.3,302.12L113.01,288.38L113.73,288.28L114.44,306.69L115.15,285.6L115.86,300.48L116.57,284.69L117.28,300.66L117.99,279.67L118.7,296.82L120.12,283.99L120.83,291.96L121.54,292.96L122.25,300.82L122.97,298.03L123.68,280.75L125.1,295.73L125.81,285.84L126.52,275.28L127.23,289.83L127.94,308.22L128.65,284.7L129.36,288.8L130.07,307.24L130.78,304.37L131.5,297.66L132.92,306.19L133.63,295.96L134.34,283.94L135.05,299.88L135.76,300.21L136.47,292.44L137.18,302.16L137.89,302.07L138.6,306.1L139.31,304.71L140.02,287.62L141.45,299.6L142.16,300.25L142.87,297.41L143.58,306.49L144.29,308.69L145,292.31L145.71,310.97L146.42,307.44L147.13,306.71L147.84,303.01L148.55,295.67L149.26,303.39L149.98,308.01L150.69,300.27L151.4,274.6L152.11,309.04L153.53,287.53L154.24,281.7L156.37,290.06L157.08,298.86L157.79,267.97L158.5,269.6L159.22,282.57L159.93,265.55L160.64,302.39L161.35,305.86L162.06,303.83L162.77,303.02L163.48,216.93L164.19,269.43L164.9,252.64L166.32,285.5L167.03,235.66L167.75,276.24L168.46,242.71L169.17,239.45L169.88,297.6L170.59,192.76L171.3,195.96L172.01,304.91L172.72,242.2L173.43,278.12L174.85,209.84L175.56,243.48L176.27,298.41L176.99,259.7L178.41,304.45L179.12,304.07L179.83,259.84L180.54,294.28L181.25,303.27L181.96,302.89L182.67,265.91L184.09,303.53L184.8,293.09L185.51,181.35L186.23,272.17L186.94,299.72L187.65,299.23L188.36,301.04L189.07,240L189.78,301.21L190.49,286.05L191.2,16.5L191.91,303.79L192.62,287.83L193.33,297.27L194.04,291.13L194.75,300.06L195.47,270.32L196.18,302.81L196.89,260.91L197.6,295.58L198.31,289.42L199.02,232.05L200.44,305.14L201.15,298.25L202.57,305.32L203.28,299.88L204,304.72L204.71,302L205.42,304.89L206.13,302.66L206.84,301.58L207.55,304.46L208.26,305.85L208.97,303.98L209.68,301.39L210.39,304.81L211.81,303.01L212.52,301.5L213.24,304.61L213.95,302.45L215.37,304.34L216.08,302.58L216.79,304.71L217.5,303.14L219.63,302.22L220.34,304.21L221.76,301.36L222.48,303.26L223.19,305.03L223.9,302.2L224.61,304.93L225.32,302.74L226.03,303.54L226.74,300.09L227.45,301.62L228.16,300.85L228.87,306.79L229.58,300.6L230.29,303.89L231,303.34L232.43,302.19L233.14,299.66L233.85,300.11L234.56,303.14L235.27,304.63L235.98,301.19L236.69,302.9L237.4,300.48L238.82,302.09L239.53,291.9L240.25,305.8L240.96,303.34L242.38,302.06L243.09,304.34L243.8,299.41L244.51,301.71L245.22,300.48L245.93,304.61L247.35,301.88L248.06,302.53L249.49,301.07L250.2,302.84L250.91,303.46L251.62,301.66L253.04,304.29L253.75,301.2L255.17,299.05L255.88,300.68L256.59,304.28L257.3,303.46L258.01,303.17L258.73,304.11L260.15,304.24L260.86,302.45L261.57,302.87L262.28,304.27L262.99,302.27L263.7,303.57L264.41,300.99L265.12,301.61L265.83,303.55L266.54,301.31L267.97,304.65L268.68,303.8L269.39,303.84L270.1,302.79L270.81,302.01L271.52,304.19L272.23,301.86L272.94,304.21L273.65,302.04L274.36,304.21L275.78,301.36L276.5,301.71L277.92,303.71L278.63,300.81L279.34,301.24L280.05,306.16L280.76,301.14L281.47,302.62L282.18,303.08L282.89,300.96L284.31,303.31L285.02,299.87L285.74,302.14L286.45,298.24L287.16,298.72L287.87,301.1L288.58,301.36L289.29,300.6L290,300.31L290.71,301.8L291.42,303.03L292.13,301.62L292.84,300.05L293.55,302.17L296.4,301.44L297.11,303.64L297.82,300.75L298.53,302.71L299.24,296.79L299.95,300.58L302.08,301.38L302.79,303.37L304.22,300.76L304.93,302.09L305.64,301.49L306.35,302.98L307.06,302.84L307.77,301.19L308.48,300.95L309.19,297.8L310.61,300.25L311.32,300.63L312.03,301.56L312.75,300.9L313.46,303.87L314.17,301.76L315.59,301.2L316.3,298.47L317.72,301.43L318.43,302.12L319.85,299.24L320.56,298.81L321.27,302.01L321.99,301.54L322.7,299.75L323.41,300.15L324.83,301.61L325.54,301.94L326.25,300.94L326.96,302.37L329.09,300.07L329.8,301.1L330.51,302.56L331.23,302.04L332.65,296.98L333.36,301.01L334.78,302.52L335.49,299.08L338.33,301.55L339.04,300.13L339.75,298.42L340.47,300L341.89,299.43L342.6,298.72L343.31,298.94L344.02,301.4L344.73,299.84L345.44,301L346.86,299.9L347.57,300.41L348.28,300.69L349,300.12L349.71,299.94L350.42,296.15L352.55,298.1L353.26,301.85L354.68,298.44L355.39,299.53L356.81,301.86L357.52,297.53L359.66,299.87L360.37,299.18L361.08,300.1L361.79,295.78L363.21,300.05L363.92,299.25L364.63,299.51L365.34,302.09L366.05,298.89L366.76,299.37L367.48,297.8L368.19,302.19L368.9,302.05L369.61,299.87L370.32,297.09L371.03,298.9L371.74,297.97L372.45,299.28L373.16,301.65L373.87,299.66L374.58,298.47L375.29,300.85L376,297.45L376.72,300.44L377.43,298.79L378.14,301.1L379.56,298.97L380.27,294.53L381.69,303.26L382.4,295.95L383.82,302.58L384.53,296.7L385.96,301.92L386.67,299.17L387.38,301.22L388.09,297.86L388.8,300.95L389.51,295.88L390.22,302.06L390.93,297.99L391.64,299.1L392.35,297.84L393.06,297.69L393.77,304.14L394.49,298.76L395.2,298.98L395.91,299.5L396.62,294.56L397.33,296.15L398.75,301.14L399.46,305.27L400.88,299.12L401.59,300.97L402.3,297.71L403.01,300.84L403.73,300.2L404.44,298.15L405.15,300.2L405.86,305.95L407.28,299.09L407.99,302.45L408.7,300.82L409.41,302.69L410.83,302.02L411.54,299.57L412.25,296.6L412.97,302.97L413.68,302.78L414.39,300.93L415.1,300L415.81,293.38L416.52,302.89L417.23,301.71L418.65,302.94L419.36,301.36L420.07,303.02L420.78,300.29L422.21,302.03L422.92,302.09L423.63,297.89L424.34,302.13L425.76,304.21L426.47,301.96L427.18,302.72L427.89,305.83L429.31,301.06L430.02,304.2L430.74,298.64L431.45,302.87L432.16,303.2L432.87,297.57L434.29,303.43L435,302.73L435.71,302.26L436.42,299.69L437.13,304.07L437.84,301.36L439.98,301.5L440.69,296.02L441.4,301.47L442.11,296.99L443.53,298.8L444.24,297.51L444.95,300.01L445.66,295.98L447.08,298.99L447.79,297.63L448.5,297.32L449.22,298.57L451.35,300.78L452.06,298.08L452.77,299.27L453.48,297.68L454.19,297.83L454.9,296.52L455.61,301.22L456.32,298.09L457.03,299.42L457.75,298.3L458.46,297.15L459.17,300.53L460.59,299.81L461.3,299.4L462.01,301.36L462.72,296.68L463.43,300.74L464.14,298.85L465.56,298.21L466.27,299.35L466.99,289.68L467.7,297.69L468.41,295.6L469.12,297.57L469.83,297.22L470.54,297.94L472.67,296.73L473.38,297.01L474.09,298.54L474.8,297.26L475.51,300.24L476.23,297.03L476.94,299.84L477.65,297.78L479.07,298.71L479.78,301.41L480.49,300.48L481.2,296.63L481.91,298.36L482.62,294.75L483.33,300.92L484.04,298.75L484.75,298.31L485.47,299.61L486.89,296.01L487.6,298.82L488.31,295.77L489.02,297.76L489.73,294.8L490.44,297.81L491.15,297.87L491.86,299.27L492.57,298.66L493.28,299.92L494,286.5L494.71,298.51L496.13,297.11L496.84,297.56L497.55,295.59L498.26,298.3L498.97,296.97L499.68,298.28L500.39,298.83L501.1,297.36L501.81,299.25L502.52,298.31L503.24,298.18L503.95,299.09L504.66,295.45L505.37,296.46L506.08,298.56L506.79,297.5L507.5,298.61L508.21,302.68L508.92,296.35L509.63,297.64L510.34,298.2L511.05,297.37L512.48,299.32L513.19,297.52L513.9,297.16L514.61,298.31L516.03,298.9L516.74,290.18L517.45,299.13L518.16,296.78L519.58,301.22L520.29,297.21L521,297.28L521.72,302.31L522.43,297.86L523.14,301.3L523.85,298.89L524.56,300.61L525.27,300.35L525.98,298.33L527.4,301.48L528.11,301.07L528.82,298.41L529.53,301.98L530.25,300.1L530.96,301.12L531.67,294.8L532.38,299.27L533.8,299.58L534.51,294.87L535.22,298.04L535.93,296.17L536.64,300.78L537.35,298.08L538.06,298.23L538.77,300.53L539.49,297.96L540.2,299.76L541.62,293.37L542.33,297.58L543.04,291.8L543.75,297.32L544.46,298.2L545.17,294.93L546.59,298.75L547.3,298.47L548.01,301.5L548.73,300.6L549.44,299.03L550.15,299.79L551.57,296.11L552.28,298.93L553.7,296.95L554.41,297.93L555.83,299.22L556.54,298.24L557.97,299.17L558.68,297.39L560.1,299L560.81,293.47L561.52,301.25L562.23,299.14L562.94,297.3L563.65,299.75L565.78,297.05L566.5,297.66L567.21,297.4L567.92,299.84L569.34,297.31L570.05,298.16L570.76,297.86L571.47,295.5L573.6,298.94L574.31,298.13L575.02,303.35L575.74,297.14L576.45,297.21L577.16,298.86L577.87,298.29L578.58,299.84L579.29,298.2L580,300.26" style="vector-effect: non-scaling-stroke; fill: none; stroke: rgb(255, 127, 14); stroke-opacity: 1; stroke-width: 2px; opacity: 1;"/></g><g class="points"/><g class="text"/></g></g></g><g class="overplot"/><path class="xlines-above crisp" d="M0,0" style="fill: none;"/><path class="ylines-above crisp" d="M0,0" style="fill: none;"/><g class="overlines-above"/><g class="xaxislayer-above"><g class="xtick"><text text-anchor="middle" x="0" y="403" transform="translate(60,0)" style="font-family: 'Open Sans', verdana, arial, sans-serif; font-size: 12px; fill: rgb(68, 68, 68); fill-opacity: 1; white-space: pre;">0</text></g><g class="xtick"><text text-anchor="middle" x="0" y="403" transform="translate(131.07999999999998,0)" style="font-family: 'Open Sans', verdana, arial, sans-serif; font-size: 12px; fill: rgb(68, 68, 68); fill-opacity: 1; white-space: pre;">100</text></g><g class="xtick"><text text-anchor="middle" x="0" y="403" transform="translate(202.16,0)" style="font-family: 'Open Sans', verdana, arial, sans-serif; font-size: 12px; fill: rgb(68, 68, 68); fill-opacity: 1; white-space: pre;">200</text></g><g class="xtick"><text text-anchor="middle" x="0" y="403" transform="translate(273.24,0)" style="font-family: 'Open Sans', verdana, arial, sans-serif; font-size: 12px; fill: rgb(68, 68, 68); fill-opacity: 1; white-space: pre;">300</text></g><g class="xtick"><text text-anchor="middle" x="0" y="403" transform="translate(344.31,0)" style="font-family: 'Open Sans', verdana, arial, sans-serif; font-size: 12px; fill: rgb(68, 68, 68); fill-opacity: 1; white-space: pre;">400</text></g><g class="xtick"><text text-anchor="middle" x="0" y="403" transform="translate(415.39,0)" style="font-family: 'Open Sans', verdana, arial, sans-serif; font-size: 12px; fill: rgb(68, 68, 68); fill-opacity: 1; white-space: pre;">500</text></g><g class="xtick"><text text-anchor="middle" x="0" y="403" transform="translate(486.47,0)" style="font-family: 'Open Sans', verdana, arial, sans-serif; font-size: 12px; fill: rgb(68, 68, 68); fill-opacity: 1; white-space: pre;">600</text></g><g class="xtick"><text text-anchor="middle" x="0" y="403" transform="translate(557.55,0)" style="font-family: 'Open Sans', verdana, arial, sans-serif; font-size: 12px; fill: rgb(68, 68, 68); fill-opacity: 1; white-space: pre;">700</text></g><g class="xtick"><text text-anchor="middle" x="0" y="403" transform="translate(628.63,0)" style="font-family: 'Open Sans', verdana, arial, sans-serif; font-size: 12px; fill: rgb(68, 68, 68); fill-opacity: 1; white-space: pre;">800</text></g></g><g class="yaxislayer-above"><g class="ytick"><text text-anchor="end" x="59" y="4.199999999999999" transform="translate(0,373.53)" style="font-family: 'Open Sans', verdana, arial, sans-serif; font-size: 12px; fill: rgb(68, 68, 68); fill-opacity: 1; white-space: pre;">0</text></g><g class="ytick"><text text-anchor="end" x="59" y="4.199999999999999" transform="translate(0,328.98)" style="font-family: 'Open Sans', verdana, arial, sans-serif; font-size: 12px; fill: rgb(68, 68, 68); fill-opacity: 1; white-space: pre;">100</text></g><g class="ytick"><text text-anchor="end" x="59" y="4.199999999999999" transform="translate(0,284.43)" style="font-family: 'Open Sans', verdana, arial, sans-serif; font-size: 12px; fill: rgb(68, 68, 68); fill-opacity: 1; white-space: pre;">200</text></g><g class="ytick"><text text-anchor="end" x="59" y="4.199999999999999" transform="translate(0,239.88)" style="font-family: 'Open Sans', verdana, arial, sans-serif; font-size: 12px; fill: rgb(68, 68, 68); fill-opacity: 1; white-space: pre;">300</text></g><g class="ytick"><text text-anchor="end" x="59" y="4.199999999999999" transform="translate(0,195.33)" style="font-family: 'Open Sans', verdana, arial, sans-serif; font-size: 12px; fill: rgb(68, 68, 68); fill-opacity: 1; white-space: pre;">400</text></g><g class="ytick"><text text-anchor="end" x="59" y="4.199999999999999" transform="translate(0,150.78)" style="font-family: 'Open Sans', verdana, arial, sans-serif; font-size: 12px; fill: rgb(68, 68, 68); fill-opacity: 1; white-space: pre;">500</text></g><g class="ytick"><text text-anchor="end" x="59" y="4.199999999999999" transform="translate(0,106.22999999999999)" style="font-family: 'Open Sans', verdana, arial, sans-serif; font-size: 12px; fill: rgb(68, 68, 68); fill-opacity: 1; white-space: pre;">600</text></g><g class="ytick"><text text-anchor="end" x="59" y="4.199999999999999" transform="translate(0,61.68)" style="font-family: 'Open Sans', verdana, arial, sans-serif; font-size: 12px; fill: rgb(68, 68, 68); fill-opacity: 1; white-space: pre;">700</text></g></g><g class="overaxes-above"/></g></g><g class="polarlayer"/><g class="ternarylayer"/><g class="geolayer"/><g class="funnelarealayer"/><g class="pielayer"/><g class="treemaplayer"/><g class="sunburstlayer"/><g class="glimages"/><defs id="topdefs-542d8e"><g class="clips"/></defs><g class="layer-above"><g class="imagelayer"/><g class="shapelayer"/></g><g class="infolayer"><g class="g-gtitle"><text class="gtitle" x="350" y="30" text-anchor="middle" dy="0em" style="font-family: 'Open Sans', verdana, arial, sans-serif; font-size: 17px; fill: rgb(68, 68, 68); opacity: 1; font-weight: normal; white-space: pre;">Std of q-values per episode</text></g><g class="g-xtitle"><text class="xtitle" x="350" y="442" text-anchor="middle" style="font-family: 'Open Sans', verdana, arial, sans-serif; font-size: 14px; fill: rgb(68, 68, 68); opacity: 1; font-weight: normal; white-space: pre;">episode number</text></g><g class="g-ytitle"><text class="ytitle" transform="rotate(-90,22,225)" x="22" y="225" text-anchor="middle" style="font-family: 'Open Sans', verdana, arial, sans-serif; font-size: 14px; fill: rgb(68, 68, 68); opacity: 1; font-weight: normal; white-space: pre;">episode std q-values</text></g></g></svg>